_______ Visit us at our Semi Public Bittorrent Community ________
  
http://p2pdl.com  _____________________________  http://p2pdl.com


The Call 2013 BRRip 480p x264 AAC - VYTO


Genre: Thriller 
Plot: When a veteran 911 operator takes a life-altering call from a teenage girl
who has just been abducted, she realizes that she must confront a killer from her
past in order to save the girl's life.   
Director: Brad Anderson
Stars:  Halle Berry, Abigail Breslin, Morris Chestnut.
Rated: R for violence, disturbing content and some language.


Info: 
http://www.imdb.com/title/tt1911644/

Trailer:


Format                         : MPEG-4
File size                      : 299 MiB
Duration                       : 1h 34mn
Overall bit rate mode          : Variable
Overall bit rate               : 444 Kbps
Source                         : 720p.BluRay.x264-SPARKS

Video
Format                         : AVC
Bit rate                       : 403 Kbps
Width                          : 720 pixels
Height                         : 384 pixels
Display aspect ratio           : 1.85:1
Frame rate mode                : Constant
Frame rate                     : 23.976 fps
Stream size                    : 270 MiB (90%)
Writing library                : x264 core 130 r2273

Audio
Format                         : AAC
Bit rate mode                  : Variable
Bit rate                       : 39.9 Kbps
Channel(s)                     : 2 channels
Channel positions              : Front: L R
Sampling rate                  : 48.0 KHz
Stream size                    : 26.9 MiB (9%)
Language                       : English

Subtitle                       : Yes(English)

----------------------------------------------------------------------------------------------------


Encoded using revolutionary 10bit encoding, which enables us to provide you more crispier 
and sharper images at small sizes, just make sure you follow our instructions without a fault.
Recommend to you to use latest version of VLC player. Install K-Lite Codec Pack or shark007 codecs
in case of any kind of problem in playback (For non-VLC Media Player users). Alternatively, install
Core AVC codecs, the fastest decoder that there is coupled with Community Center Codec Pack and play
on Windows Media Player Classic. Check sample to be sure.
Enjoy!

Encoder Notes:Looking For Early Access To Anything You Can Provide DVDScr, R5, DVDR, BluRay, Direct
Audio, Music Releases and Seedboxes. We require dedicated servers, so as to do more 
and fast releases of movies.
If You Got anything to offer please contact us at "contact@p2pdl.com".

Face book Fan Page:   
http://fbl.me/BC